name D:\school\WTK\thesis\model\3dpredictsim\Results\tmt_lin\Pog_s1_tmt_bCst_d00_k1000_ig24_act_v3.mot
datacolumns 128
datarows 4
range 1.29215001 1.33091451
endheader
time	pelvis_tilt	pelvis_list	pelvis_rotation	pelvis_tx	pelvis_ty	pelvis_tz	hip_flexion_l	hip_adduction_l	hip_rotation_l	hip_flexion_r	hip_adduction_r	hip_rotation_r	knee_angle_l	knee_angle_r	ankle_angle_l	ankle_angle_r	subtalar_angle_l	subtalar_angle_r	tmt_angle_l	tmt_angle_r	mtp_angle_l	mtp_angle_r	lumbar_extension	lumbar_bending	lumbar_rotation	arm_flex_l	arm_add_l	arm_rot_l	arm_flex_r	arm_add_r	arm_rot_r	elbow_flex_l	elbow_flex_r	pro_sup_l	pro_sup_r	glut_med1_l/activation	glut_med2_l/activation	glut_med3_l/activation	glut_min1_l/activation	glut_min2_l/activation	glut_min3_l/activation	semimem_l/activation	semiten_l/activation	bifemlh_l/activation	bifemsh_l/activation	sar_l/activation	add_long_l/activation	add_brev_l/activation	add_mag1_l/activation	add_mag2_l/activation	add_mag3_l/activation	tfl_l/activation	pect_l/activation	grac_l/activation	glut_max1_l/activation	glut_max2_l/activation	glut_max3_l/activation	iliacus_l/activation	psoas_l/activation	quad_fem_l/activation	gem_l/activation	peri_l/activation	rect_fem_l/activation	vas_med_l/activation	vas_int_l/activation	vas_lat_l/activation	med_gas_l/activation	lat_gas_l/activation	soleus_l/activation	tib_post_l/activation	flex_dig_l/activation	flex_hal_l/activation	tib_ant_l/activation	per_brev_l/activation	per_long_l/activation	per_tert_l/activation	ext_dig_l/activation	ext_hal_l/activation	ercspn_l/activation	intobl_l/activation	extobl_l/activation	glut_med1_r/activation	glut_med2_r/activation	glut_med3_r/activation	glut_min1_r/activation	glut_min2_r/activation	glut_min3_r/activation	semimem_r/activation	semiten_r/activation	bifemlh_r/activation	bifemsh_r/activation	sar_r/activation	add_long_r/activation	add_brev_r/activation	add_mag1_r/activation	add_mag2_r/activation	add_mag3_r/activation	tfl_r/activation	pect_r/activation	grac_r/activation	glut_max1_r/activation	glut_max2_r/activation	glut_max3_r/activation	iliacus_r/activation	psoas_r/activation	quad_fem_r/activation	gem_r/activation	peri_r/activation	rect_fem_r/activation	vas_med_r/activation	vas_int_r/activation	vas_lat_r/activation	med_gas_r/activation	lat_gas_r/activation	soleus_r/activation	tib_post_r/activation	flex_dig_r/activation	flex_hal_r/activation	tib_ant_r/activation	per_brev_r/activation	per_long_r/activation	per_tert_r/activation	ext_dig_r/activation	ext_hal_r/activation	ercspn_r/activation	intobl_r/activation	extobl_r/activation	
          1.29215001	         -2.92798933	         -1.72054111	          9.81773329	          1.61518752	          0.84943883	         -0.00426622	        -17.41009110	         -3.67910857	          7.94082277	         34.77327307	          0.21024243	         -1.19862756	        -14.92195168	        -15.33988588	         -5.71251147	          9.70032328	         16.79984650	         -1.56198563	          1.41052967	          0.02048441	         28.18023871	         -0.08025232	         -0.40003412	         -1.01730885	         -3.83904480	          3.72343838	        -13.55021070	         18.95532632	        -11.54476013	        -13.65151348	         13.15034400	         47.40960822	         15.45880489	         86.51662706	         86.51662706	          0.14655507	          0.08975964	          0.07454860	          0.20509169	          0.13345617	          0.07881467	          0.05000045	          0.05000005	          0.05000005	          0.05000020	          0.09185080	          0.05000016	          0.05000005	          0.05000005	          0.05000009	          0.05000009	          0.16945277	          0.05000041	          0.05000012	          0.05000115	          0.05000054	          0.05000017	          0.38904999	          0.60178663	          0.05000006	          0.05000030	          0.07385471	          0.23614121	          0.09364601	          0.05000050	          0.06318952	          0.17219118	          0.25595601	          0.05897323	          0.17409960	          0.22333304	          0.23157987	          0.05000000	          0.40477094	          0.35037148	          0.05000001	          0.21039501	          0.05000002	          0.05000000	          0.05000000	          0.05000001	          0.05000010	          0.05000005	          0.05000039	          0.05000004	          0.05000006	          0.05000017	          0.15841399	          0.06076882	          0.11941626	          0.06076805	          0.05000077	          0.07101536	          0.09116349	          0.21209059	          0.15467470	          0.11309669	          0.06076784	          0.05078634	          0.07771875	          0.05000015	          0.06769957	          0.07240352	          0.07025676	          0.07116152	          0.19293908	          0.05000041	          0.05000019	          0.05000005	          0.05719637	          0.07522803	          0.06456940	          0.06076792	          0.06076793	          0.06076791	          0.05300222	          0.05000019	          0.06431003	          0.47255717	          0.31029552	          0.20453361	          0.08116450	          0.56868940	          0.16878941	          0.05000020	          0.15396706	          0.11365285	
          1.30507151	         -2.92980510	         -1.65765342	          9.98812521	          1.63656334	          0.84814631	         -0.00382382	        -17.63936236	         -3.91312655	          7.66873001	         34.02887521	          0.50700342	         -1.01474598	        -16.27917823	        -15.38963017	         -8.77960842	          9.01917261	         17.05180103	         -1.92708419	          1.06993989	          0.03686767	         29.98116520	         -0.07729571	         -0.11607847	         -0.85370499	         -3.96781119	          3.08828627	        -13.64121496	         19.15531028	        -13.23969128	        -13.63320243	         12.96005408	         48.88358809	         15.58195115	         86.51662706	         86.51662706	          0.12058592	          0.07385450	          0.06133886	          0.16875001	          0.10980810	          0.06484897	          0.05000057	          0.05000004	          0.05000006	          0.05000008	          0.07557516	          0.13676652	          0.14239260	          0.08736540	          0.05001194	          0.05000032	          0.13942620	          0.06906369	          0.05070317	          0.05000081	          0.05000059	          0.05000060	          0.32011136	          0.49515164	          0.07385471	          0.06086873	          0.06076797	          0.19429760	          0.07705253	          0.12897784	          0.08960920	          0.14167935	          0.21060127	          0.05000000	          0.14324960	          0.18375901	          0.19054452	          0.23575273	          0.40018359	          0.31990434	          0.48964057	          0.40262837	          0.14953423	          0.05066399	          0.06800020	          0.06076793	          0.07766168	          0.08119921	          0.05000006	          0.06076844	          0.06076787	          0.05000163	          0.13034346	          0.05000077	          0.09825602	          0.05000023	          0.05000060	          0.05843167	          0.07500959	          0.17451022	          0.20627692	          0.13477896	          0.05000012	          0.05000037	          0.06394726	          0.06076790	          0.10599804	          0.05957392	          0.05780748	          0.05855192	          0.43535343	          0.06076805	          0.09233651	          0.06489059	          0.21467294	          0.21866355	          0.19450009	          0.05000000	          0.05000002	          0.05000000	          0.05000004	          0.07385448	          0.05291478	          0.67086349	          0.38607433	          0.23685596	          0.50638277	          0.66690101	          0.41892507	          0.05000000	          0.12668450	          0.09351387	
          1.31799301	         -2.92494455	         -1.59323568	         10.11205007	          1.65812719	          0.84650198	         -0.00339766	        -17.65235987	         -4.09794271	          7.38905636	         33.16216591	          0.79769344	         -0.76400483	        -18.03730052	        -16.08192348	        -11.65892223	          8.17415545	         17.24204171	         -2.30554556	          0.74802518	         -0.03761104	         30.86021756	         -0.15154660	          0.16818597	         -0.67159107	         -4.07568639	          2.38155420	        -13.74421236	         19.27813904	        -14.89997508	        -13.62228081	         12.84816570	         50.34172477	         15.65426080	         86.51662706	         86.51662706	          0.09921849	          0.06076771	          0.05046980	          0.13884800	          0.09035041	          0.05335793	          0.05000368	          0.06076789	          0.06076793	          0.05000007	          0.06218350	          0.18180152	          0.25569465	          0.12791614	          0.06762168	          0.09626396	          0.11472025	          0.05682622	          0.06068795	          0.05054267	          0.06076634	          0.06076791	          0.26338847	          0.42940015	          0.06076791	          0.05008320	          0.05000006	          0.15986858	          0.06339904	          0.10612332	          0.07373070	          0.11657414	          0.17328327	          0.05000000	          0.11786615	          0.15119740	          0.15678054	          0.45070518	          0.48033059	          0.33137528	          0.72582449	          0.53038909	          0.35024425	          0.08333858	          0.05595075	          0.05000003	          0.24991160	          0.29271473	          0.45953038	          0.05000049	          0.05000007	          0.37286631	          0.11590252	          0.05000027	          0.10426182	          0.05000002	          0.05000007	          0.07385481	          0.19413777	          0.24658466	          0.23325079	          0.16684252	          0.05000006	          0.06076948	          0.13299478	          0.05000005	          0.19326976	          0.17430332	          0.05613586	          0.05000017	          0.35820998	          0.05000021	          0.31037875	          0.05339215	          0.17663348	          0.17991697	          0.16003521	          0.06076789	          0.06076790	          0.06076790	          0.06076787	          0.06076772	          0.06076788	          0.56396906	          0.34684907	          0.19488573	          0.48128733	          0.68783198	          0.43604604	          0.05908235	          0.10423636	          0.07694345	
          1.33091451	         -2.91667212	         -1.53496262	         10.18413851	          1.67942911	          0.84463279	         -0.00296590	        -17.37681203	         -4.23580632	          7.11920256	         32.24353692	          1.08923182	         -0.48413641	        -20.31124742	        -16.91515472	        -13.90787994	          7.48681279	         17.36088927	         -2.68660509	          0.53295058	         -0.02374279	         29.79546139	         -0.15484490	          0.41702285	         -0.46411315	         -4.16028511	          1.67923644	        -13.83854655	         19.32176664	        -16.42152216	        -13.62171877	         12.89161463	         51.72778827	         15.60378608	         86.51662706	         86.51662706	          0.20837715	          0.05000002	          0.05000000	          0.20640909	          0.07434058	          0.05000007	          0.05000048	          0.05000004	          0.05000007	          0.05000004	          0.05253574	          0.15333243	          0.21038643	          0.10524982	          0.05563941	          0.07920628	          0.09439215	          0.06360239	          0.05000010	          0.05000021	          0.05000014	          0.05000010	          0.21671675	          0.41974149	          0.05000002	          0.05000009	          0.05000005	          0.13154028	          0.08975982	          0.08975981	          0.07814345	          0.09591750	          0.14257793	          0.05000000	          0.09698058	          0.12440563	          0.12899944	          0.38344228	          0.39521730	          0.27265653	          0.66606593	          0.72110265	          0.28818190	          0.13327787	          0.05000000	          0.05000000	          0.32008035	          0.44755563	          0.54853422	          0.10876379	          0.26044420	          0.30679553	          0.09536490	          0.10087656	          0.08578692	          0.07053858	          0.05000017	          0.06076794	          0.15973707	          0.20289056	          0.23066194	          0.18454551	          0.05000004	          0.05000135	          0.10942850	          0.29161101	          0.26085449	          0.21178927	          0.05000000	          0.05000000	          0.30707662	          0.08846737	          0.25538053	          0.05000000	          0.14533468	          0.23613126	          0.20200983	          0.05000000	          0.05000000	          0.05000000	          0.05000000	          0.05000007	          0.05000003	          0.74797236	          0.42720256	          0.21023478	          0.72133695	          0.80830490	          0.52516166	          0.07276085	          0.08576597	          0.06330927	
